<?xml version="1.0" ?><!DOCTYPE svg  PUBLIC '-//W3C//DTD SVG 1.1//EN'  'http://www.w3.org/Graphics/SVG/1.1/DTD/svg11.dtd'><svg enable-background="new 0 0 128 128" id="Слой_1" version="1.1" viewBox="0 0 128 128" xml:space="preserve" xmlns="http://www.w3.org/2000/svg" xmlns:xlink="http://www.w3.org/1999/xlink"><g><circle cx="64" cy="64" fill="#D6D6D6" r="62"/><g><g><g><path d="M82.8,81.6l4.6-17.2c2.1-8-2.6-16.2-10.6-18.3l-17.2-4.6c-7.2-1.9-14.9-0.9-21.3,2.8L2,65      c0.4,23.2,13.6,43.4,32.8,53.7l34.9-20.1C76.2,94.9,80.9,88.8,82.8,81.6z M66.9,60c0-3.9,3.1-7,7-7c3.9,0,7,3.1,7,7      c0,3.9-3.1,7-7,7C70,66.9,66.9,63.8,66.9,60z" fill="#FEE444"/></g><g><path d="M73.9,68.2c4.5,0,8.2-3.7,8.2-8.2s-3.7-8.2-8.2-8.2s-8.2,3.7-8.2,8.2S69.3,68.2,73.9,68.2z M73.9,54.2      c3.2,0,5.8,2.6,5.8,5.7s-2.6,5.7-5.8,5.7s-5.8-2.6-5.8-5.7S70.7,54.2,73.9,54.2z" fill="#62355C"/><path d="M84,81.9l4.6-17.2c2.3-8.6-2.9-17.5-11.5-19.9l-17.2-4.6c-7.4-2-15.6-0.9-22.3,2.9L2,63.6      c0,0.1,0,0.3,0,0.4c0,0.8,0,1.6,0.1,2.5l36.8-21.2c4.1-2.3,8.7-3.6,13.4-3.6c2.4,0,4.7,0.3,7,0.9l17.2,4.6      c7.3,2,11.7,9.5,9.7,16.8l-4.6,17.2c-1.8,6.8-6.4,12.7-12.5,16.2L33.5,118c0.9,0.5,1.7,0.9,2.6,1.4l34.2-19.7      C77.1,95.8,82,89.4,84,81.9z" fill="#62355C"/></g><g><g><g><path d="M28.5,110.5c1.8-2.2,2.6-4.9,2.3-7.7c-0.6-5.7-5.7-10-11.6-9.3c-2.8,0.3-5.3,1.7-7.1,3.9        c-0.1,0.1-0.1,0.2-0.2,0.3c1,1.6,2.1,3.1,3.2,4.5c0.2-0.6,0.5-1.1,0.9-1.6c0.9-1.1,2.3-1.9,3.7-2c0.2,0,0.4,0,0.6,0        c2.8,0,5.2,2.1,5.5,4.9c0.2,1.5-0.3,2.9-1.2,4c-0.8,1-1.8,1.6-3,1.9c1.3,1.3,2.8,2.5,4.2,3.6        C26.8,112.2,27.7,111.4,28.5,110.5z" fill="#FAF9F8"/></g><g><path d="M29.3,61.6c-2.8,0.3-5.3,1.7-7.1,3.9c-1.8,2.2-2.6,4.9-2.3,7.7c0.6,5.4,5.1,9.4,10.5,9.4        c0.4,0,0.8,0,1.1-0.1c2.8-0.3,5.3-1.7,7.1-3.9c1.8-2.2,2.6-4.9,2.3-7.7C40.3,65.2,35.1,60.9,29.3,61.6z M34.7,75.5        c-0.9,1.2-2.3,1.9-3.7,2c-3.1,0.3-5.8-1.9-6.1-4.9c-0.2-1.5,0.3-2.9,1.2-4c0.9-1.2,2.3-1.9,3.7-2c0.2,0,0.4,0,0.6,0        c2.8,0,5.2,2.1,5.5,4.9C36.1,72.9,35.6,74.3,34.7,75.5z" fill="#FAF9F8"/></g></g><g><path d="M48.9,93.2c1.3,0,2.3-0.9,2.5-2.2c0.2-1.4-0.8-2.6-2.2-2.8L5,83.1c0.6,1.8,1.2,3.5,2,5.3l41.6,4.8       C48.7,93.2,48.8,93.2,48.9,93.2z" fill="#FAF9F8"/></g></g></g><g><g><path d="M100.7,61.8l-25.1-5.7c-2.3-0.5-4.5,1-5,3.2s1,4.5,3.2,5L98.9,70c2.3,0.5,4.5-1,5-3.2v0      C104.4,64.5,102.9,62.3,100.7,61.8z" fill="#FFFFFF"/></g><g><path d="M100.9,60.6l-25.1-5.7c-0.4-0.1-0.8-0.1-1.1-0.1c-2.6,0-4.8,1.8-5.3,4.3c-0.3,1.4,0,2.9,0.8,4.1      c0.8,1.2,2,2.1,3.4,2.4l25.1,5.7c0.4,0.1,0.8,0.1,1.1,0.1c2.6,0,4.8-1.8,5.3-4.3c0.3-1.4,0-2.9-0.8-4.1      C103.6,61.7,102.4,60.9,100.9,60.6z M102.7,66.5c-0.3,1.4-1.5,2.3-2.9,2.3c-0.2,0-0.4,0-0.6-0.1l-25.1-5.7      c-0.8-0.2-1.4-0.6-1.9-1.3c-0.4-0.7-0.6-1.4-0.4-2.2c0.3-1.4,1.5-2.3,2.9-2.3c0.2,0,0.4,0,0.6,0.1l25.1,5.7      c0.8,0.2,1.4,0.6,1.9,1.3C102.7,65,102.8,65.8,102.7,66.5z" fill="#62355C"/></g></g></g></g></svg>